<svg width="26" height="32" viewBox="0 0 26 32" fill="none" xmlns="http://www.w3.org/2000/svg">
<path d="M22.3776 6.49935H19.2109C19.2109 3.00018 16.3768 0.166016 12.8776 0.166016C9.37844 0.166016 6.54427 3.00018 6.54427 6.49935H3.3776C1.63594 6.49935 0.210938 7.92435 0.210938 9.66602V28.666C0.210938 30.4077 1.63594 31.8327 3.3776 31.8327H22.3776C24.1193 31.8327 25.5443 30.4077 25.5443 28.666V9.66602C25.5443 7.92435 24.1193 6.49935 22.3776 6.49935ZM12.8776 3.33268C14.6193 3.33268 16.0443 4.75768 16.0443 6.49935H9.71094C9.71094 4.75768 11.1359 3.33268 12.8776 3.33268ZM22.3776 28.666H3.3776V9.66602H6.54427V12.8327C6.54427 13.7035 7.25677 14.416 8.1276 14.416C8.99844 14.416 9.71094 13.7035 9.71094 12.8327V9.66602H16.0443V12.8327C16.0443 13.7035 16.7568 14.416 17.6276 14.416C18.4984 14.416 19.2109 13.7035 19.2109 12.8327V9.66602H22.3776V28.666Z" fill="#002F52"/>
</svg>
