<svg width="39" height="38" viewBox="0 0 39 38" fill="none" xmlns="http://www.w3.org/2000/svg">
<path d="M29.3776 9.49935H26.2109C26.2109 6.00018 23.3768 3.16602 19.8776 3.16602C16.3784 3.16602 13.5443 6.00018 13.5443 9.49935H10.3776C8.63594 9.49935 7.21094 10.9243 7.21094 12.666V31.666C7.21094 33.4077 8.63594 34.8327 10.3776 34.8327H29.3776C31.1193 34.8327 32.5443 33.4077 32.5443 31.666V12.666C32.5443 10.9243 31.1193 9.49935 29.3776 9.49935ZM19.8776 6.33268C21.6193 6.33268 23.0443 7.75768 23.0443 9.49935H16.7109C16.7109 7.75768 18.1359 6.33268 19.8776 6.33268ZM29.3776 31.666H10.3776V12.666H13.5443V15.8327C13.5443 16.7035 14.2568 17.416 15.1276 17.416C15.9984 17.416 16.7109 16.7035 16.7109 15.8327V12.666H23.0443V15.8327C23.0443 16.7035 23.7568 17.416 24.6276 17.416C25.4984 17.416 26.2109 16.7035 26.2109 15.8327V12.666H29.3776V31.666Z" fill="#002F52"/>
</svg>
